<?xml version="1.0" encoding="utf-8"?>
<!-- Generator: Adobe Illustrator 17.0.2, SVG Export Plug-In . SVG Version: 6.00 Build 0)  -->
<!DOCTYPE svg PUBLIC "-//W3C//DTD SVG 1.1//EN" "http://www.w3.org/Graphics/SVG/1.1/DTD/svg11.dtd">
<svg version="1.1" id="Layer_1" xmlns="http://www.w3.org/2000/svg" xmlns:xlink="http://www.w3.org/1999/xlink" x="0px" y="0px"
	 width="300px" height="300px" viewBox="0 0 300 300" enable-background="new 0 0 300 300" xml:space="preserve">
<rect x="-130.68" y="-137.667" fill="#3A3E3F" stroke="#000000" width="591" height="594"/>
<g>
	<path fill="#FFFFFF" d="M166.97,47.144c0-9.373-7.599-16.971-16.971-16.971c-9.371,0-16.97,7.598-16.97,16.971
		c0,6.927,4.157,12.879,10.111,15.517l-4.025,40.104h6.877h8.394h6.877l-4.042-40.286C162.976,59.766,166.97,53.932,166.97,47.144z"
		/>
	<path fill="#FFFFFF" d="M39.271,269.826v-19.012c0-2.47,2.001-4.477,4.477-4.477h212.507c2.474,0,4.474,2.007,4.474,4.477v19.012"
		/>
	<path fill="#FFFFFF" d="M237.415,135.141c8.584,0,15.546,4.968,15.546,11.094v36.082c0,6.127-6.962,11.101-15.546,11.101"/>
	<path fill="#FFFFFF" d="M62.587,135.141c-8.586,0-15.547,4.968-15.547,11.094v36.082c0,6.127,6.962,11.101,15.547,11.101"/>
	<g>
		<circle fill="#FFFFFF" cx="102.931" cy="143.392" r="14.282"/>
		<ellipse fill="#FFFFFF" cx="196.997" cy="143.605" rx="14.28" ry="14.285"/>
		<path fill="#FFFFFF" d="M230.343,105.374H69.657c-2.47,0-4.475,2-4.475,4.468v132.73H234.82v-132.73
			C234.82,107.374,232.813,105.374,230.343,105.374z M102.067,228.033h-14.7c-2.47,0-4.474-2.005-4.474-4.474v-27.966
			c0-2.467,2.005-4.468,4.474-4.468h14.7V228.033z M82.778,143.606c0-11.168,9.053-20.228,20.227-20.228
			c11.166,0,20.221,9.059,20.221,20.228c0,11.172-9.055,20.225-20.221,20.225C91.83,163.831,82.778,154.778,82.778,143.606z
			 M130.83,228.033h-19.174v-36.908h19.174V228.033z M159.587,228.033h-19.174v-36.908h19.174V228.033z M188.347,228.033H169.17
			v-36.908h19.177V228.033z M217.11,223.558c0,2.47-2.007,4.474-4.477,4.474h-14.7v-36.908h14.7c2.47,0,4.477,2.001,4.477,4.468
			V223.558z M196.997,163.831c-11.168,0-20.221-9.053-20.221-20.225c0-11.168,9.053-20.228,20.221-20.228
			c11.172,0,20.225,9.059,20.225,20.228C217.222,154.778,208.17,163.831,196.997,163.831z"/>
	</g>
</g>
</svg>
