<?xml version="1.0" encoding="utf-8"?>
<!-- Generator: Adobe Illustrator 17.0.2, SVG Export Plug-In . SVG Version: 6.00 Build 0)  -->
<!DOCTYPE svg PUBLIC "-//W3C//DTD SVG 1.1//EN" "http://www.w3.org/Graphics/SVG/1.1/DTD/svg11.dtd">
<svg version="1.1" id="Layer_1" xmlns="http://www.w3.org/2000/svg" xmlns:xlink="http://www.w3.org/1999/xlink" x="0px" y="0px"
	 width="200px" height="200px" viewBox="0 0 200 200" enable-background="new 0 0 200 200" xml:space="preserve">
<path fill="#FFFFFF" stroke="#3A3E3F" stroke-width="5.5569" stroke-miterlimit="10" d="M194.707,184.855
	c0,2.046-1.659,3.705-3.705,3.705H8.997c-2.046,0-3.705-1.659-3.705-3.705V15.145c0-2.046,1.659-3.705,3.705-3.705h182.006
	c2.046,0,3.705,1.659,3.705,3.705V184.855z"/>
<g>
	<g>
		<path fill="#3A3E3F" stroke="#3A3E3F" stroke-width="1.9846" stroke-miterlimit="10" d="M162.416,95.675h-0.009
			c-0.881-18.136-7.336-35.055-18.335-47.938c-11.786-13.799-27.434-21.403-44.075-21.403c-16.633,0-32.281,7.604-44.067,21.403
			C44.93,60.621,38.484,77.539,37.603,95.675c-0.009,0-0.009,0-0.009,0c-2.514,0-4.657,1.313-6.031,3.69
			c-3.776,6.532-1.417,20.383,3.206,28.393c2.912,5.037,6.567,7.82,10.602,8.079c11.051,23.381,31.832,37.828,54.626,37.828
			c22.802,0,43.591-14.447,54.634-37.828c9.738-0.665,15.683-16.322,15.683-27.615C170.313,96.583,164.265,95.675,162.416,95.675z
			 M161.621,123.023c-2.013,4.329-4.744,7.439-7.638,7.439c-0.216,0-0.423-0.017-0.648-0.052c-1.201-0.181-2.376,0.467-2.869,1.573
			c-9.954,22.379-29.291,36.282-50.469,36.282c-21.169,0-40.507-13.903-50.461-36.282c-0.432-0.985-1.408-1.598-2.463-1.598
			c-0.13,0-0.268,0.009-0.397,0.035c-0.225,0.026-0.441,0.043-0.657,0.043c-2.998,0-5.409-3.387-6.575-5.409
			c-4.433-7.681-5.469-19.061-3.206-22.992c0.57-0.985,1.08-0.985,1.357-0.985c0.406,0,0.933,0.138,1.521,0.397
			c0.475,0.207,1.002,0.277,1.503,0.19h0.06c1.21-0.19,30.251-5.132,52.543-20.539c9.185-6.351,16.961-12.399,23.701-18.439
			c9.608,16.771,26.717,35.694,42.391,38.978h0.061c0.51,0.086,1.037,0.017,1.521-0.19c0.588-0.259,1.106-0.397,1.521-0.397
			c1.469,0,2.497,2.938,2.497,7.146C164.913,113.129,163.625,118.685,161.621,123.023z"/>
	</g>
</g>
</svg>
